<svg width="100" height="100" viewBox="0 0 100 100" fill="none" xmlns="http://www.w3.org/2000/svg">
<circle cx="50" cy="50" r="50" fill="white"/>
<path d="M74.6621 25.786C73.8342 24.8124 72.6268 24.2543 71.3496 24.2543H67.1574V22.9429C67.1574 21.3202 65.8371 20 64.2145 20H35.7857C34.1629 20 32.8429 21.3202 32.8429 22.9428V24.2541H28.6502C27.373 24.2541 26.1655 24.8124 25.3377 25.7859C24.5183 26.7493 24.1642 28.0147 24.3663 29.2575C25.4679 36.0309 29.7306 42.0149 35.7804 45.2972C36.3332 46.6262 36.9592 47.8851 37.6563 49.0579C39.8832 52.8049 42.6515 55.3946 45.6986 56.6469C46.0074 59.7693 43.9298 62.7272 40.8008 63.4321C40.7942 63.4336 40.7895 63.436 40.7829 63.4375C40.1723 63.5834 39.7177 64.1314 39.7177 64.7867V71.1574H37.1412C34.8441 71.1574 32.9753 73.0262 32.9753 75.3233V78.6113C32.9753 79.3783 33.597 80 34.364 80H65.7687C66.5357 80 67.1574 79.3783 67.1574 78.6113V75.3233C67.1574 73.0262 65.2886 71.1574 62.9915 71.1574H60.4148V64.7868C60.4148 64.1302 59.9586 63.5814 59.3463 63.4368C59.3405 63.4354 59.335 63.4335 59.3293 63.4321C56.1767 62.7225 54.0952 59.7348 54.4365 56.5891C57.4304 55.3164 60.1502 52.7499 62.3442 49.0581C63.0413 47.8852 63.6672 46.6262 64.2201 45.297C70.2696 42.0145 74.532 36.0307 75.6336 29.2575C75.8358 28.0147 75.4816 26.7494 74.6621 25.786ZM27.1076 28.8116C27.0354 28.3678 27.1581 27.9322 27.4532 27.5851C27.7526 27.2331 28.1888 27.0313 28.6501 27.0313H32.8427V29.5862C32.8427 33.5924 33.354 37.4729 34.3231 41.0217C30.5149 38.0125 27.893 33.641 27.1076 28.8116ZM62.9915 73.9348C63.7572 73.9348 64.3802 74.5578 64.3802 75.3235V77.2229H35.7525V75.3235C35.7525 74.5578 36.3755 73.9348 37.1412 73.9348H62.9915ZM57.6374 66.1755V71.1575H42.4953V66.1755H57.6374ZM46.1371 63.3983C46.4804 63.0204 46.7942 62.6109 47.0748 62.1725C48.0003 60.7265 48.486 59.0837 48.5078 57.406C49.0011 57.4731 49.4989 57.5091 50.0009 57.5091C50.5471 57.5091 51.0883 57.4671 51.6242 57.3877C51.6558 59.6423 52.5333 61.7764 54.0088 63.3981H46.1371V63.3983ZM64.38 29.5863C64.38 36.4276 62.8089 42.839 59.9565 47.639C57.2387 52.2128 53.7029 54.7318 50.0007 54.7318C46.2979 54.7318 42.7619 52.2129 40.0437 47.6392C37.1911 42.8391 35.6201 36.4277 35.6201 29.5865V22.9428C35.6201 22.8514 35.6944 22.7772 35.7856 22.7772H64.2143C64.3057 22.7772 64.38 22.8515 64.38 22.9428V29.5863ZM72.8924 28.8116C72.107 33.6407 69.4852 38.012 65.6772 41.0215C66.6461 37.4727 67.1574 33.5924 67.1574 29.5863V27.0314H71.3496C71.8111 27.0314 72.2472 27.2333 72.5465 27.5852C72.8416 27.9322 72.9644 28.3678 72.8924 28.8116Z" fill="black"/>
<path d="M58.4306 34.2568C58.2671 33.7543 57.8326 33.388 57.3096 33.3118L53.1192 32.7029L51.2453 28.9058C51.0112 28.4319 50.5285 28.1318 50 28.1318C49.4714 28.1318 48.9887 28.4319 48.7548 28.9058L46.8808 32.7029L42.6904 33.3118C42.1673 33.3878 41.7328 33.7542 41.5694 34.2569C41.4062 34.7598 41.5423 35.3115 41.9209 35.6805L44.9531 38.6361L44.2372 42.8095C44.1478 43.3306 44.3619 43.857 44.7896 44.1677C45.2171 44.4784 45.7842 44.5193 46.252 44.2734L50 42.3032L53.7479 44.2734C53.9511 44.3802 54.1729 44.4328 54.3938 44.4328C54.6817 44.4328 54.9683 44.3434 55.2102 44.1676C55.6379 43.8568 55.852 43.3304 55.7626 42.8094L55.0467 38.636L58.0789 35.6804C58.4577 35.3115 58.5939 34.7597 58.4306 34.2568ZM52.5856 37.1569C52.2583 37.4759 52.1089 37.9355 52.1863 38.3861L52.5498 40.506L50.6461 39.5051C50.4439 39.3987 50.2218 39.3457 49.9999 39.3457C49.7779 39.3457 49.556 39.3989 49.3537 39.5051L47.45 40.506L47.8135 38.3861C47.8909 37.9356 47.7415 37.476 47.4142 37.1569L45.8742 35.6557L48.0026 35.3463C48.4548 35.2807 48.8458 34.9965 49.0481 34.5867L50 32.658L50.9518 34.5867C51.1542 34.9965 51.545 35.2806 51.9974 35.3463L54.1257 35.6557L52.5856 37.1569Z" fill="black"/>
</svg>
