<svg width="100" height="100" viewBox="0 0 100 100" fill="none" xmlns="http://www.w3.org/2000/svg">
<circle cx="50" cy="50" r="50" fill="white"/>
<path fill-rule="evenodd" clip-rule="evenodd" d="M50.0307 39.7025C52.7375 39.7025 55.081 38.7317 56.9964 36.8163C58.9111 34.9012 59.8823 32.558 59.8823 29.8509C59.8823 27.1448 58.9115 24.8013 56.9961 22.8856C55.0807 20.9708 52.7371 20 50.0307 20C47.3236 20 44.9804 20.9708 43.0653 22.8859C41.1503 24.8009 40.1791 27.1445 40.1791 29.8509C40.1791 32.558 41.1503 34.9015 43.0653 36.8166C44.981 38.7313 47.3246 39.7025 50.0307 39.7025ZM44.7604 24.5806C46.2299 23.1112 47.9537 22.3969 50.0307 22.3969C52.1074 22.3969 53.8315 23.1112 55.3013 24.5806C56.7708 26.0504 57.4854 27.7745 57.4854 29.8509C57.4854 31.9279 56.7708 33.6517 55.3013 35.1215C53.8315 36.5913 52.1074 37.3056 50.0307 37.3056C47.9543 37.3056 46.2305 36.591 44.7604 35.1215C43.2906 33.652 42.576 31.9279 42.576 29.8509C42.576 27.7745 43.2906 26.0504 44.7604 24.5806ZM67.2682 51.4513C67.213 50.6543 67.1013 49.7849 66.9368 48.8669C66.7708 47.942 66.557 47.0676 66.3012 46.2684C66.0365 45.4424 65.6774 44.6267 65.2327 43.845C64.7718 43.0337 64.23 42.3272 63.6222 41.7458C62.9865 41.1376 62.2082 40.6486 61.3083 40.292C60.4114 39.9372 59.4175 39.7574 58.3544 39.7574C57.9368 39.7574 57.533 39.9287 56.7532 40.4364C56.2733 40.7494 55.7119 41.1114 55.0853 41.5118C54.5495 41.8532 53.8237 42.173 52.9271 42.4626C52.0524 42.7456 51.1643 42.8892 50.2875 42.8892C49.4112 42.8892 48.5231 42.7456 47.6478 42.4626C46.7522 42.1733 46.026 41.8535 45.4912 41.5121C44.8705 41.1155 44.3088 40.7535 43.8217 40.4361C43.0425 39.9284 42.6387 39.7571 42.2212 39.7571C41.1577 39.7571 40.1641 39.9372 39.2676 40.2923C38.3682 40.6483 37.5896 41.1373 36.9534 41.7461C36.3455 42.3278 35.8038 43.034 35.3432 43.845C34.8991 44.6267 34.5396 45.4421 34.275 46.2687C34.0194 47.0679 33.8057 47.942 33.6397 48.8669C33.4749 49.7837 33.3635 50.6534 33.3083 51.4523C33.254 52.2333 33.2265 53.0462 33.2265 53.8675C33.2265 56.0026 33.9052 57.7311 35.2436 59.0058C36.5655 60.2637 38.3142 60.9016 40.4415 60.9016H60.1359C62.2625 60.9016 64.0113 60.2637 65.3335 59.0058C66.6722 57.732 67.3509 56.0029 67.3509 53.8672C67.3506 53.0431 67.3228 52.2302 67.2682 51.4513ZM63.6808 57.2692C62.8074 58.1006 61.6478 58.5047 60.1356 58.5047H40.4415C38.929 58.5047 37.7694 58.1006 36.8963 57.2696C36.0397 56.4542 35.6234 55.3411 35.6234 53.8675C35.6234 53.1011 35.6487 52.3444 35.6992 51.618C35.7485 50.9052 35.8493 50.1223 35.9988 49.2903C36.1464 48.4687 36.3343 47.6976 36.5577 46.9996C36.7721 46.3302 37.0645 45.6674 37.4271 45.0289C37.7731 44.4204 38.1713 43.8984 38.6107 43.4777C39.0217 43.0842 39.5397 42.7622 40.1501 42.5206C40.7146 42.2972 41.349 42.1749 42.0377 42.1565C42.1216 42.2011 42.2711 42.2863 42.5132 42.4442C43.006 42.7653 43.5739 43.1316 44.2018 43.5326C44.9095 43.9839 45.8213 44.3914 46.9107 44.7431C48.0244 45.1032 49.1603 45.2861 50.2878 45.2861C51.4152 45.2861 52.5514 45.1032 53.6645 44.7434C54.7548 44.3911 55.6663 43.9839 56.375 43.532C57.0175 43.1214 57.5696 42.7656 58.0623 42.4442C58.3044 42.2866 58.4539 42.2011 58.5379 42.1565C59.2269 42.1749 59.8613 42.2972 60.4261 42.5206C61.0362 42.7622 61.5542 43.0845 61.9652 43.4777C62.4045 43.8981 62.8027 44.4201 63.1488 45.0292C63.5117 45.6674 63.8044 46.3305 64.0185 46.9992C64.2422 47.6982 64.4304 48.469 64.5777 49.29C64.7268 50.1235 64.8279 50.9068 64.8772 51.6183V51.6189C64.9281 52.3425 64.9537 53.099 64.954 53.8675C64.9537 55.3414 64.5374 56.4542 63.6808 57.2692ZM22.6368 63.8898C24.9116 60.5755 29.0289 59.0553 32.9117 60.0962C35.8075 60.869 38.1603 62.978 39.2442 65.7724H60.8618C61.6942 64.3306 62.8915 63.1333 64.3332 62.301C68.8693 59.6821 74.6697 61.2363 77.2886 65.7724C79.9074 70.3085 78.3533 76.1089 73.8172 78.7277C69.2811 81.3466 63.4807 79.7924 60.8618 75.2564H37.7807C36.1416 77.2609 33.7533 78.5072 31.1715 78.7051C25.9553 79.105 21.4026 75.2005 21.0027 69.9842C20.9946 69.8773 21.0047 69.7698 21.0326 69.6663C21.1687 69.1605 21.6891 68.8608 22.1948 68.9969L29.9622 71.0834L29.9673 71.0847C30.4737 71.2181 30.9925 70.9157 31.1259 70.4091L31.6172 68.5796C31.7473 68.0715 31.4447 67.5532 30.9381 67.4169L23.1745 65.3418C23.0707 65.314 22.9723 65.2688 22.8836 65.2081C22.4514 64.9123 22.3409 64.322 22.6368 63.8898ZM76.6355 70.5118C76.6341 66.3215 73.2359 62.9258 69.0457 62.9272C66.1603 62.9176 63.5223 64.5549 62.2505 67.1447C61.2149 69.2717 61.2149 71.757 62.2505 73.884C63.5315 76.4682 66.1667 78.1025 69.0509 78.1016C73.2412 78.1001 76.6369 74.702 76.6355 70.5118ZM38.9995 73.3596H59.9961C59.4119 71.5077 59.4119 69.5209 59.9961 67.6692H39.7952C39.8436 67.9537 39.8777 68.2382 39.8986 68.5189C39.9518 69.1368 39.9397 69.7586 39.8625 70.374C39.8517 70.4607 39.8404 70.547 39.8284 70.6329C39.7773 70.995 39.7055 71.3537 39.6131 71.7075C39.5401 71.9815 39.4509 72.2509 39.3561 72.5155C39.3378 72.566 39.3165 72.6156 39.2952 72.6653C39.2801 72.7005 39.265 72.7358 39.2508 72.7716C39.1797 72.948 39.1086 73.1244 39.027 73.297C39.0215 73.3074 39.0171 73.3183 39.0127 73.3293C39.0102 73.3355 39.0077 73.3417 39.005 73.3479C39.0032 73.3518 39.0014 73.3557 38.9995 73.3596ZM37.7836 71.2152C38.1447 69.8305 38.1119 68.3724 37.6888 67.0053C36.9297 64.5136 34.9362 62.5916 32.4186 61.9238C29.8003 61.2224 27.0069 61.9712 25.0903 63.8879L31.4303 65.5827C32.9459 65.9947 33.8467 67.5505 33.4495 69.07L32.9553 70.9042C32.5416 72.4146 30.9922 73.3132 29.4757 72.9224L23.1262 71.2152C23.8262 73.8339 25.8716 75.8793 28.4903 76.5794C31.506 77.383 34.7062 76.2592 36.5574 73.7465L36.7243 73.5113C37.2076 72.8131 37.5661 72.0362 37.7836 71.2152ZM56.7165 69.566H42.4906C41.9668 69.566 41.5422 69.9906 41.5422 70.5144C41.5422 71.0381 41.9668 71.4628 42.4906 71.4628H56.7165C57.2403 71.4628 57.6649 71.0381 57.6649 70.5144C57.6649 69.9906 57.2403 69.566 56.7165 69.566ZM66.0336 74.7822L63.8437 70.9886C63.6743 70.6952 63.6743 70.3336 63.8437 70.0402L66.0336 66.2466C66.203 65.9532 66.5161 65.7724 66.8549 65.7724H71.2365C71.5753 65.7724 71.8884 65.9532 72.0578 66.2466L74.2476 70.0402C74.417 70.3336 74.417 70.6952 74.2476 70.9886L72.0578 74.7822C71.8884 75.0756 71.5753 75.2564 71.2365 75.2564H66.8549C66.5161 75.2564 66.203 75.0756 66.0336 74.7822ZM72.3319 70.5144L70.6883 67.6692H67.403L65.7595 70.5144L67.403 73.3596H70.6883L72.3319 70.5144Z" fill="black"/>
</svg>
