<svg width="100" height="100" viewBox="0 0 100 100" fill="none" xmlns="http://www.w3.org/2000/svg">
<circle cx="50" cy="50" r="50" fill="white"/>
<g clip-path="url(#clip0)">
<path d="M71.9387 30.5443C66.7414 25.347 59.8282 22.483 52.4829 22.483C45.0018 22.483 38.0022 25.4334 32.7802 30.7912C32.2123 31.3714 32.2247 32.3096 32.8049 32.8898C33.3851 33.4577 34.3233 33.4454 34.9036 32.8652C39.57 28.0876 45.8042 25.4581 52.4829 25.4581C66.0254 25.4458 77.0372 36.4576 77.0372 50.0001C77.0372 63.5426 66.0254 74.5544 52.4829 74.5544C38.9404 74.5544 27.9286 63.5426 27.9286 50.0001V49.6914L30.3729 52.1358C30.6569 52.4197 31.0396 52.5678 31.4223 52.5678C31.8049 52.5678 32.1753 52.4197 32.4716 52.1358C33.0518 51.5555 33.0518 50.6173 32.4716 50.0371L27.5089 45.0621C26.9287 44.4818 25.9904 44.4818 25.4102 45.0621L20.4352 50.0371C19.8549 50.6173 19.8549 51.5555 20.4352 52.1358C21.0154 52.716 21.9536 52.716 22.5338 52.1358L24.9781 49.6914V50.0001C24.9781 57.3454 27.8422 64.2586 33.0395 69.4559C38.2367 74.6531 45.1499 77.5172 52.4952 77.5172C59.8405 77.5172 66.7538 74.6531 71.951 69.4559C77.1483 64.2586 80 57.3454 80 50.0001C80 42.6548 77.136 35.7415 71.9387 30.5443Z" fill="black"/>
<path d="M60.359 39.9882L42.1625 58.1725C41.5822 58.7527 41.5822 59.6909 42.1625 60.2711C42.4464 60.5551 42.8291 60.7032 43.2118 60.7032C43.5945 60.7032 43.9648 60.5551 44.2611 60.2711L62.4577 42.0745C63.0379 41.4943 63.0379 40.5561 62.4577 39.9759C61.8775 39.408 60.9393 39.408 60.359 39.9882Z" fill="black"/>
<path d="M55.5938 52.2345C53.5322 54.2961 53.5322 57.6663 55.5938 59.728C56.5938 60.7279 57.927 61.2834 59.3467 61.2834C60.7664 61.2834 62.0997 60.7279 63.0996 59.728C65.1613 57.6663 65.1613 54.2961 63.0996 52.2345C62.0997 51.2346 60.7664 50.679 59.3467 50.679C57.927 50.679 56.6061 51.2346 55.5938 52.2345ZM61.001 57.6417C60.5565 58.0861 59.9763 58.3206 59.3467 58.3206C58.7171 58.3206 58.1369 58.0737 57.6925 57.6417C56.779 56.7281 56.779 55.2467 57.6925 54.3332C58.1369 53.8888 58.7171 53.6542 59.3467 53.6542C59.9763 53.6542 60.5565 53.9011 61.001 54.3332C61.9145 55.2467 61.9145 56.7281 61.001 57.6417Z" fill="black"/>
<path d="M45.6685 38.6673C44.2488 38.6673 42.9155 39.2229 41.9156 40.2228C40.9156 41.2228 40.3601 42.556 40.3601 43.9757C40.3601 45.3954 40.9156 46.7286 41.9156 47.7286C42.9155 48.7285 44.2488 49.2841 45.6685 49.2841C47.0882 49.2841 48.4214 48.7285 49.4214 47.7286C50.4213 46.7286 50.9768 45.3954 50.9768 43.9757C50.9768 42.556 50.4213 41.2228 49.4214 40.2228C48.4091 39.2229 47.0882 38.6673 45.6685 38.6673ZM47.3227 45.6299C46.8783 46.0744 46.2981 46.3089 45.6685 46.3089C45.0389 46.3089 44.4587 46.062 44.0142 45.6299C43.5698 45.1855 43.3353 44.6053 43.3353 43.9757C43.3353 43.3461 43.5822 42.7659 44.0142 42.3215C44.4587 41.877 45.0389 41.6425 45.6685 41.6425C46.2981 41.6425 46.8783 41.8894 47.3227 42.3215C47.7671 42.7659 48.0017 43.3461 48.0017 43.9757C48.0017 44.5929 47.7671 45.1855 47.3227 45.6299Z" fill="black"/>
</g>
<defs>
<clipPath id="clip0">
<rect width="60" height="60" fill="white" transform="translate(20 20)"/>
</clipPath>
</defs>
</svg>
