<svg width="100" height="100" viewBox="0 0 100 100" fill="none" xmlns="http://www.w3.org/2000/svg">
<circle cx="50" cy="50" r="50" fill="white"/>
<path d="M40.625 37.1094C41.2718 37.1094 41.7969 36.5843 41.7969 35.9375C41.7969 35.2907 41.2718 34.7656 40.625 34.7656C39.9782 34.7656 39.4531 35.2907 39.4531 35.9375C39.4531 36.5843 39.9782 37.1094 40.625 37.1094Z" fill="black"/>
<path d="M40.625 44.1406C41.2718 44.1406 41.7969 43.6156 41.7969 42.9688C41.7969 42.3219 41.2718 41.7969 40.625 41.7969C39.9782 41.7969 39.4531 42.3219 39.4531 42.9688C39.4531 43.6156 39.9782 44.1406 40.625 44.1406Z" fill="black"/>
<path d="M38.2812 80H66.4062C70.9294 80 74.6094 76.32 74.6094 71.7969C74.6094 71.1496 74.0848 70.625 73.4375 70.625H69.9219V25.8594C69.9219 22.6285 67.2934 20 64.0625 20C64.0625 20 30.3427 20 30.0781 20C27.4936 20 25.3906 22.103 25.3906 24.6875V30.5469C25.3906 31.1942 25.9152 31.7188 26.5625 31.7188H32.4219V73.8898C32.4219 77.0744 34.8462 80 38.2812 80ZM66.4062 77.6562H42.966C43.703 76.6762 44.1406 75.4466 44.1406 74.1287V72.9568H72.148C71.6037 75.6284 69.2357 77.6562 66.4062 77.6562ZM67.5781 25.8594V70.625H42.9688C42.3215 70.625 41.7969 71.1496 41.7969 71.7969V74.1406C41.7969 76.0793 40.2199 77.6562 38.2812 77.6562C36.1801 77.6562 34.7656 75.838 34.7656 73.8898V24.6875C34.7656 23.8425 34.5404 23.0396 34.1389 22.3438H64.0625C66.0011 22.3438 67.5781 23.9207 67.5781 25.8594ZM27.7344 29.375V24.6875C27.7344 23.3952 28.7859 22.3438 30.0781 22.3438C31.3594 22.3438 32.4219 23.3769 32.4219 24.6875V29.375H27.7344Z" fill="black"/>
<path d="M51.1719 53.5156C51.1719 55.5444 52.0206 57.4203 53.5156 58.7524V66.4062C53.5156 66.8384 53.7537 67.2357 54.1345 67.4394C54.5154 67.6436 54.9782 67.6212 55.3375 67.3813L58.2031 65.471L61.0687 67.3813C61.429 67.6216 61.8913 67.6431 62.2717 67.4394C62.6526 67.2357 62.8906 66.8384 62.8906 66.4062V58.7524C64.3861 57.4199 65.2344 55.544 65.2344 53.5156C65.2344 49.6388 62.0804 46.4844 58.2031 46.4844C54.3259 46.4844 51.1719 49.6384 51.1719 53.5156ZM58.8531 63.0875C58.4595 62.8252 57.9468 62.8252 57.5531 63.0875L55.8594 64.2168V60.1468C56.6042 60.41 57.3929 60.5469 58.2031 60.5469C59.0134 60.5469 59.8021 60.41 60.5469 60.1468V64.2168L58.8531 63.0875ZM62.8906 53.5156C62.8906 56.161 60.7364 58.2031 58.2031 58.2031C55.6689 58.2031 53.5156 56.1624 53.5156 53.5156C53.5156 50.9311 55.6186 48.8281 58.2031 48.8281C60.7877 48.8281 62.8906 50.9311 62.8906 53.5156Z" fill="black"/>
<path d="M40.625 30.0781H61.7188C62.366 30.0781 62.8906 29.5535 62.8906 28.9062C62.8906 28.259 62.366 27.7344 61.7188 27.7344H40.625C39.9777 27.7344 39.4531 28.259 39.4531 28.9062C39.4531 29.5535 39.9777 30.0781 40.625 30.0781Z" fill="black"/>
<path d="M45.3125 37.1094H61.7188C62.366 37.1094 62.8906 36.5848 62.8906 35.9375C62.8906 35.2902 62.366 34.7656 61.7188 34.7656H45.3125C44.6652 34.7656 44.1406 35.2902 44.1406 35.9375C44.1406 36.5848 44.6652 37.1094 45.3125 37.1094Z" fill="black"/>
<path d="M45.3125 44.1406H61.7188C62.366 44.1406 62.8906 43.616 62.8906 42.9688C62.8906 42.3215 62.366 41.7969 61.7188 41.7969H45.3125C44.6652 41.7969 44.1406 42.3215 44.1406 42.9688C44.1406 43.616 44.6652 44.1406 45.3125 44.1406Z" fill="black"/>
<path d="M40.625 58.2031H47.6562C48.3035 58.2031 48.8281 57.6785 48.8281 57.0312C48.8281 56.384 48.3035 55.8594 47.6562 55.8594H40.625C39.9777 55.8594 39.4531 56.384 39.4531 57.0312C39.4531 57.6785 39.9777 58.2031 40.625 58.2031Z" fill="black"/>
<path d="M40.625 51.1719H47.6562C48.3035 51.1719 48.8281 50.6473 48.8281 50C48.8281 49.3527 48.3035 48.8281 47.6562 48.8281H40.625C39.9777 48.8281 39.4531 49.3527 39.4531 50C39.4531 50.6473 39.9777 51.1719 40.625 51.1719Z" fill="black"/>
<path d="M40.625 65.2344H47.6562C48.3035 65.2344 48.8281 64.7098 48.8281 64.0625C48.8281 63.4152 48.3035 62.8906 47.6562 62.8906H40.625C39.9777 62.8906 39.4531 63.4152 39.4531 64.0625C39.4531 64.7098 39.9777 65.2344 40.625 65.2344Z" fill="black"/>
</svg>
