<svg width="100" height="100" viewBox="0 0 100 100" fill="none" xmlns="http://www.w3.org/2000/svg">
<circle cx="50" cy="50" r="50" fill="white"/>
<path d="M64.0625 20.9375V26.2587C63.8834 26.3816 63.7156 26.5212 63.56 26.6759L60.5394 29.6966C59.2625 30.9734 57.7691 31.9953 56.1388 32.7322C56.9937 31.5144 57.5 30.035 57.5 28.4375C57.5 24.3022 54.1353 20.9375 50 20.9375C45.8647 20.9375 42.5 24.3022 42.5 28.4375C42.5 30.035 43.0063 31.5134 43.8603 32.7312C42.23 31.9944 40.7366 30.9725 39.4597 29.6966L36.4391 26.6759C35.7613 25.9981 34.8603 25.625 33.9022 25.625C31.9222 25.625 30.3125 27.2347 30.3125 29.2147V29.4294C30.3125 30.2009 30.5675 30.9659 31.0306 31.5828L32.0684 32.9675C34.7234 36.5075 37.9147 39.5647 41.5616 42.0612V49.0625H31.25V50.9375H68.75V49.0625H58.4375V42.0603C60.4494 40.6831 62.3319 39.1231 64.0625 37.4066V41.5625H79.0625V20.9375H64.0625ZM49.9138 35.9328C49.9428 35.9338 49.9709 35.9375 50 35.9375C50.0347 35.9375 50.0684 35.9328 50.1031 35.9319C51.1156 35.9272 52.1197 35.8297 53.1144 35.6412L50 39.2009L46.8819 35.6375C47.8962 35.8269 48.9078 35.9263 49.9138 35.9328ZM50 22.8125C53.1022 22.8125 55.625 25.3353 55.625 28.4375C55.625 31.3222 53.4416 33.7034 50.6412 34.0231C50.2081 34.0409 49.7741 34.04 49.3372 34.0203C46.5472 33.6912 44.375 31.3147 44.375 28.4375C44.375 25.3353 46.8978 22.8125 50 22.8125ZM56.9797 40.7825L56.5625 41.0609V49.0625H43.4375V41.0609L43.0203 40.7825C39.3763 38.3534 36.1972 35.345 33.5684 31.8416L32.5306 30.4569C32.3094 30.1625 32.1875 29.7969 32.1875 29.4284V29.2147C32.1875 28.2688 32.9563 27.5 33.9022 27.5C34.3597 27.5 34.79 27.6781 35.1144 28.0025L38.135 31.0231C39.6772 32.5653 41.5016 33.7775 43.4984 34.6175L50 42.0491L56.5034 34.6166C58.4984 33.7775 60.3228 32.5663 61.8659 31.0231L64.0625 28.8256V34.6878C61.9559 36.9969 59.5794 39.05 56.9797 40.7825ZM77.1875 39.6875H65.9375V22.8125H77.1875V39.6875Z" fill="black"/>
<path d="M72.6472 66.7081C74.8034 65.3891 76.25 63.0191 76.25 60.3125C76.25 56.1772 72.8853 52.8125 68.75 52.8125C64.6147 52.8125 61.25 56.1772 61.25 60.3125C61.25 63.0191 62.6966 65.3891 64.8528 66.7081C62.4247 67.7037 60.4634 69.6003 59.375 71.9788C58.2866 69.5994 56.3263 67.7028 53.8972 66.7081C56.0534 65.3891 57.5 63.0191 57.5 60.3125C57.5 56.1772 54.1353 52.8125 50 52.8125C45.8647 52.8125 42.5 56.1772 42.5 60.3125C42.5 63.0191 43.9466 65.3891 46.1028 66.7081C43.6747 67.7037 41.7134 69.6003 40.625 71.9788C39.5366 69.5994 37.5763 67.7028 35.1472 66.7081C37.3034 65.3891 38.75 63.0191 38.75 60.3125C38.75 56.1772 35.3853 52.8125 31.25 52.8125C27.1147 52.8125 23.75 56.1772 23.75 60.3125C23.75 63.0191 25.1966 65.3891 27.3528 66.7081C23.5934 68.2484 20.9375 71.9431 20.9375 76.25V79.0625H39.6875H41.5625H58.4375H60.3125H79.0625V76.25C79.0625 71.9431 76.4066 68.2484 72.6472 66.7081ZM63.125 60.3125C63.125 57.2103 65.6478 54.6875 68.75 54.6875C71.8522 54.6875 74.375 57.2103 74.375 60.3125C74.375 63.4147 71.8522 65.9375 68.75 65.9375C65.6478 65.9375 63.125 63.4147 63.125 60.3125ZM44.375 60.3125C44.375 57.2103 46.8978 54.6875 50 54.6875C53.1022 54.6875 55.625 57.2103 55.625 60.3125C55.625 63.4147 53.1022 65.9375 50 65.9375C46.8978 65.9375 44.375 63.4147 44.375 60.3125ZM25.625 60.3125C25.625 57.2103 28.1478 54.6875 31.25 54.6875C34.3522 54.6875 36.875 57.2103 36.875 60.3125C36.875 63.4147 34.3522 65.9375 31.25 65.9375C28.1478 65.9375 25.625 63.4147 25.625 60.3125ZM39.6875 77.1875H36.875V73.4375H35V77.1875H27.5V73.4375H25.625V77.1875H22.8125V76.25C22.8125 71.5972 26.5981 67.8125 31.25 67.8125C35.9019 67.8125 39.6875 71.5972 39.6875 76.25V77.1875ZM58.4375 77.1875H55.625V73.4375H53.75V77.1875H46.25V73.4375H44.375V77.1875H41.5625V76.25C41.5625 71.5972 45.3481 67.8125 50 67.8125C54.6519 67.8125 58.4375 71.5972 58.4375 76.25V77.1875ZM77.1875 77.1875H74.375V73.4375H72.5V77.1875H65V73.4375H63.125V77.1875H60.3125V76.25C60.3125 71.5972 64.0981 67.8125 68.75 67.8125C73.4019 67.8125 77.1875 71.5972 77.1875 76.25V77.1875Z" fill="black"/>
<path d="M67.8125 24.6875H75.3125V26.5625H67.8125V24.6875Z" fill="black"/>
<path d="M67.8125 28.4375H75.3125V30.3125H67.8125V28.4375Z" fill="black"/>
<path d="M67.8125 32.1875H75.3125V34.0625H67.8125V32.1875Z" fill="black"/>
<path d="M67.8125 35.9375H75.3125V37.8125H67.8125V35.9375Z" fill="black"/>
<path d="M49.0625 44.375H50.9375V46.25H49.0625V44.375Z" fill="black"/>
</svg>
